<svg width="80" height="108" viewBox="0 0 80 108" fill="none" xmlns="http://www.w3.org/2000/svg">
<mask id="path-1-inside-1_147_15517" fill="white">
<path d="M14.6467 0.017193C15.5549 0.0113232 15.5549 0.0113232 16.4814 0.00533477C18.4724 -0.00445221 20.4627 0.00199893 22.4537 0.00956011C23.8433 0.00805476 25.2329 0.00588658 26.6225 0.0030858C29.5307 -0.000201597 32.4387 0.0045633 35.3469 0.0150122C39.0688 0.0277351 42.7901 0.0204066 46.512 0.00703427C49.3803 -0.00104751 52.2484 0.00153862 55.1166 0.00731965C56.4887 0.008806 57.8608 0.00699306 59.2328 0.00178241C61.1528 -0.00390949 63.0718 0.0047841 64.9918 0.017193C65.555 0.0126726 66.1183 0.00815212 66.6986 0.0034947C70.862 0.0531739 73.6802 0.919558 76.6521 3.23103C79.1951 5.50707 79.2708 7.39432 79.2699 10.2907C79.272 10.676 79.2741 11.0613 79.2763 11.4583C79.2826 12.7543 79.2848 14.0503 79.287 15.3463C79.2905 16.2736 79.2943 17.2008 79.2983 18.1281C79.3083 20.6511 79.3143 23.1741 79.319 25.6971C79.3219 27.2731 79.3254 28.8491 79.329 30.4251C79.3398 35.3553 79.348 40.2855 79.3527 45.2157C79.3583 50.9082 79.3733 56.6007 79.3964 62.2931C79.4136 66.692 79.422 71.0908 79.4239 75.4897C79.4252 78.1174 79.4304 80.7451 79.4447 83.3728C79.458 85.8454 79.4604 88.318 79.4545 90.7907C79.4543 91.6974 79.4579 92.6041 79.4657 93.5108C79.4758 94.7506 79.4718 95.9899 79.4643 97.2298C79.4705 97.5868 79.4768 97.9439 79.4832 98.3119C79.442 101.143 78.4527 103.59 75.8675 105.64C75.5388 105.802 75.21 105.963 74.8713 106.13C74.376 106.385 74.376 106.385 73.8707 106.645C72.0904 107.398 70.6055 107.556 68.623 107.57C68.0952 107.574 67.5674 107.579 67.0237 107.583C66.4457 107.586 65.8678 107.588 65.2723 107.591C64.3578 107.598 64.3578 107.598 63.4248 107.604C61.4027 107.618 59.3807 107.627 57.3587 107.636C56.668 107.639 55.9772 107.642 55.2656 107.645C51.6085 107.659 47.9515 107.67 44.2944 107.679C41.2694 107.687 38.2447 107.702 35.2199 107.725C31.5667 107.752 27.9138 107.765 24.2604 107.77C22.8697 107.773 21.479 107.782 20.0883 107.795C18.1381 107.812 16.1889 107.813 14.2386 107.809C13.3821 107.823 13.3821 107.823 12.5082 107.836C9.02323 107.808 6.75861 107.253 3.85682 105.742C0.815773 103.238 0.11451 100.586 0.155039 97.2278C0.150673 96.8388 0.146308 96.4498 0.14181 96.049C0.130095 94.7536 0.134565 93.4586 0.139107 92.1632C0.134144 91.2313 0.128228 90.2993 0.121435 89.3673C0.106179 86.8416 0.105493 84.3161 0.108385 81.7904C0.109607 79.6804 0.10403 77.5704 0.0985652 75.4604C0.0859134 70.4825 0.0854017 65.5046 0.0923058 60.5267C0.0992016 55.3937 0.0851385 50.2609 0.0608469 45.1279C0.040744 40.7176 0.0338975 36.3074 0.0376116 31.8971C0.0396797 29.2644 0.0366776 26.6318 0.0208217 23.9991C0.00647038 21.5238 0.00868527 19.0488 0.0235727 16.5734C0.0262718 15.666 0.0231528 14.7585 0.0137331 13.8511C0.00178186 12.6102 0.0110329 11.3705 0.0254988 10.1296C0.0170843 9.7723 0.00866952 9.41499 0 9.04685C0.0686612 6.23886 1.42013 4.55006 3.8757 2.53931C7.2846 0.266078 10.2555 -0.018049 14.6467 0.017193ZM3.85258 5.74643C2.78474 7.33153 3.01125 8.99977 3.12688 10.7462C3.13975 11.1175 3.15262 11.4889 3.16588 11.8715C3.19926 12.7808 3.25042 13.6897 3.30517 14.5984C3.71335 14.6859 4.12152 14.7734 4.54207 14.8636C12.2808 16.6818 19.63 19.9556 23.8644 25.4973C27.3439 30.6081 28.0096 34.9242 28.1612 40.6121C28.2943 44.2102 28.4346 46.9996 31.7248 49.7428C32.3316 50.2506 32.3316 50.2506 32.9506 50.7686C34.216 51.7478 35.5489 52.6146 36.9666 53.4554C37.765 54.7054 37.6813 55.6461 37.5371 57.0285C36.393 58.3012 34.6823 58.9487 32.9729 59.7083C33.0207 60.0099 33.0685 60.3116 33.1177 60.6225C33.2049 61.2201 33.2049 61.2201 33.2938 61.8298C33.3831 62.4205 33.3831 62.4205 33.4743 63.0231C33.5408 64.1321 33.3357 64.9015 32.9729 65.9611C33.1317 66.5415 33.1317 66.5415 33.2938 67.1335C33.3762 67.4836 33.4585 67.8336 33.5434 68.1943C33.1668 68.489 32.7903 68.7838 32.4023 69.0875C32.3727 70.5948 32.4338 72.0762 32.5472 73.58C32.606 75.0512 32.6102 76.0011 31.5149 77.2266C29.645 78.2906 28.094 78.2158 25.8791 78.1318C25.4712 78.1251 25.0633 78.1183 24.643 78.1113C22.9035 78.0822 21.1652 78.032 19.4265 77.9835C18.1542 77.9511 16.8821 77.9296 15.6095 77.9085C15.2196 77.8937 14.8296 77.8789 14.4278 77.8636C12.4164 77.8315 11.3669 77.9833 9.65165 78.835C8.15649 80.034 7.58705 81.1076 6.871 82.6819C6.6386 83.1788 6.40619 83.6756 6.16675 84.1875C5.67041 85.4085 5.29376 86.5851 5.01677 87.8461C4.76725 83.9756 4.88177 80.6481 8.1547 77.5735C10.6558 76.0072 12.7624 76.2491 15.7856 76.429C18.9238 76.5921 22.0534 76.7307 25.1994 76.764C25.7804 76.7704 26.3614 76.7767 26.96 76.7832C28.5483 76.7613 28.5483 76.7613 30.1202 75.787C30.2164 74.5726 30.2278 73.4507 30.1559 72.2419C29.9738 68.8128 29.9738 68.8128 31.2613 67.301C29.5668 66.4167 29.5668 66.4167 27.8381 65.5145C29.5325 64.6301 29.5325 64.6301 31.2613 63.7279C31.1789 63.4884 31.0965 63.2489 31.0117 63.0022C30.6368 61.7631 30.3757 60.5188 30.1202 59.2616C31.8147 58.3773 33.5092 57.493 35.255 56.5818C34.5373 53.7727 33.2356 53.2367 30.4857 51.5223C26.9821 48.7471 25.8281 46.2008 25.7895 42.3255C25.7948 41.853 25.8001 41.3806 25.8055 40.8939C25.637 33.0109 23.562 26.8115 16.5834 20.8983C13.2298 18.467 8.0589 15.4917 3.30517 15.4917C3.25186 26.5603 3.21162 37.6289 3.18693 48.6975C3.17516 53.8369 3.15912 58.9762 3.13301 64.1156C3.11026 68.595 3.09554 73.0744 3.09045 77.5539C3.08747 79.9258 3.08048 82.2976 3.06388 84.6694C3.04838 86.9023 3.04362 89.1351 3.04705 91.368C3.04642 92.1871 3.04189 93.0061 3.03313 93.8251C3.02175 94.9449 3.02452 96.0641 3.03074 97.1839C3.02076 97.6681 3.02076 97.6681 3.01059 98.1621C3.04715 100.603 3.88693 101.952 5.5873 103.925C8.13008 105.747 11.2109 105.457 14.4705 105.445C15.3811 105.45 15.3811 105.45 16.31 105.454C18.3156 105.463 20.321 105.461 22.3266 105.458C23.7214 105.46 25.1162 105.463 26.511 105.465C29.4342 105.469 32.3573 105.468 35.2805 105.464C39.0261 105.459 42.7715 105.468 46.5171 105.481C49.3975 105.489 52.2778 105.489 55.1582 105.486C56.5392 105.486 57.9202 105.489 59.3012 105.495C61.2323 105.501 63.163 105.496 65.0941 105.489C65.6642 105.493 66.2342 105.497 66.8216 105.502C70.0748 105.475 72.1069 105.261 74.6217 103.478C76.4323 101.615 76.5737 99.986 76.5391 97.721C76.5406 97.3689 76.5421 97.0168 76.5436 96.6541C76.5464 95.4758 76.537 94.2979 76.5276 93.1196C76.5271 92.2745 76.5274 91.4293 76.5284 90.5841C76.5289 88.2902 76.5188 85.9964 76.5069 83.7025C76.4962 81.3051 76.4952 78.9076 76.4931 76.5102C76.4878 71.9705 76.4738 67.4308 76.4566 62.8912C76.4375 57.7228 76.428 52.5544 76.4194 47.3861C76.4016 36.7546 76.3714 26.1231 76.3333 15.4917C69.8545 16.1435 64.5611 18.8224 60.432 22.7634C54.7961 28.7598 53.3113 34.3871 53.3393 41.6755C53.2428 45.6815 52.0706 48.8645 48.4173 51.777C47.566 52.3728 46.7143 52.9684 45.8544 53.5566C44.9253 54.2031 44.9253 54.2031 43.813 55.2419C43.6594 56.2289 43.6594 56.2289 44.3835 57.0285C45.4387 57.6433 45.4387 57.6433 46.7013 58.1171C47.9471 58.6824 47.9471 58.6824 48.9478 59.2616C49.3043 60.4619 49.3043 60.4619 48.9478 61.4948C48.5712 61.7896 48.1947 62.0843 47.8067 62.388C47.8067 62.8302 47.8067 63.2724 47.8067 63.7279C49.4854 64.7158 49.4854 64.7158 51.2299 65.5145C50.2885 65.9566 49.3471 66.3988 48.3772 66.8544C48.6611 68.0855 48.6611 68.0855 49.5183 69.0875C49.5896 70.2041 49.5896 70.2041 49.5183 71.3207C49.33 71.4681 49.1417 71.6155 48.9478 71.7673C48.6138 74.0258 48.6138 74.0258 49.5537 76.0631C51.2229 76.9948 52.8802 76.802 54.8447 76.7326C55.6842 76.7178 56.5237 76.7033 57.3631 76.689C58.6829 76.6585 60.0023 76.6244 61.3217 76.5854C62.5978 76.5502 63.8734 76.529 65.15 76.5093C65.7376 76.4857 65.7376 76.4857 66.3371 76.4616C68.5288 76.4351 69.3972 76.6232 71.1197 77.7203C74.1877 80.721 74.2839 83.2216 74.0512 86.9528C73.9475 86.6615 73.8438 86.3702 73.7369 86.07C72.1319 81.5405 72.1319 81.5405 68.3459 78.0202C66.3525 77.7868 66.3525 77.7868 64.1738 77.8806C63.4465 77.8915 62.7191 77.9025 61.9697 77.9138C59.8835 78.0155 57.86 78.2239 55.7942 78.4668C53.1385 78.6215 50.7435 78.6321 48.3772 77.5735C46.8726 76.4183 46.6704 75.8399 46.5185 74.1627C46.5351 73.5595 46.5606 72.9563 46.5943 72.3535C46.6386 71.2634 46.6623 70.1786 46.6656 69.0875C46.4774 68.9401 46.2891 68.7928 46.0951 68.6409C46.0703 67.7478 46.0723 66.8542 46.0951 65.9611C46.0951 65.5189 46.0951 65.0768 46.0951 64.6212C45.9068 64.4738 45.7185 64.3264 45.5246 64.1746C45.414 62.6164 45.6519 61.226 46.0951 59.7083C45.4479 59.4319 44.8007 59.1555 44.1339 58.8708C42.1727 58.0334 42.1727 58.0334 41.5308 57.0285C41.3169 55.7723 41.3169 55.7723 41.5308 54.3487C42.6362 53.3437 42.6362 53.3437 43.4118 52.8046C44.7015 51.89 45.8751 50.9094 47.0579 49.9103C47.4955 49.547 47.9331 49.1837 48.3839 48.8094C50.4484 46.6979 50.7999 44.5719 50.9201 41.9651C50.955 41.3934 50.99 40.8217 51.026 40.2326C51.0926 39.0463 51.1481 37.8604 51.1998 36.6735C51.6412 29.8386 54.7723 25.0114 61.0359 20.3209C65.4666 17.3597 70.7332 15.7041 76.3333 14.5984C77.1045 9.26661 77.1045 9.26661 74.7287 4.54916C72.8066 3.21164 71.2563 2.42815 68.651 2.42288C68.1295 2.41971 67.608 2.41655 67.0707 2.41329C66.2144 2.41495 66.2144 2.41495 65.3408 2.41664C64.7386 2.41436 64.1364 2.41208 63.5159 2.40972C61.5199 2.4035 59.524 2.40395 57.528 2.40497C56.143 2.40324 54.7581 2.4013 53.3731 2.39918C50.4675 2.39584 47.562 2.39597 44.6565 2.39832C40.9313 2.40091 37.2062 2.39335 33.481 2.38298C30.6198 2.37641 27.7585 2.37601 24.8972 2.37741C23.5237 2.37718 22.1502 2.37483 20.7768 2.37034C18.8564 2.36484 16.9363 2.36784 15.0159 2.37303C14.4473 2.36961 13.8787 2.3662 13.2929 2.36268C9.09367 2.38775 6.56541 3.05836 3.85258 5.74643Z"/>
</mask>
<path d="M14.6467 0.017193C15.5549 0.0113232 15.5549 0.0113232 16.4814 0.00533477C18.4724 -0.00445221 20.4627 0.00199893 22.4537 0.00956011C23.8433 0.00805476 25.2329 0.00588658 26.6225 0.0030858C29.5307 -0.000201597 32.4387 0.0045633 35.3469 0.0150122C39.0688 0.0277351 42.7901 0.0204066 46.512 0.00703427C49.3803 -0.00104751 52.2484 0.00153862 55.1166 0.00731965C56.4887 0.008806 57.8608 0.00699306 59.2328 0.00178241C61.1528 -0.00390949 63.0718 0.0047841 64.9918 0.017193C65.555 0.0126726 66.1183 0.00815212 66.6986 0.0034947C70.862 0.0531739 73.6802 0.919558 76.6521 3.23103C79.1951 5.50707 79.2708 7.39432 79.2699 10.2907C79.272 10.676 79.2741 11.0613 79.2763 11.4583C79.2826 12.7543 79.2848 14.0503 79.287 15.3463C79.2905 16.2736 79.2943 17.2008 79.2983 18.1281C79.3083 20.6511 79.3143 23.1741 79.319 25.6971C79.3219 27.2731 79.3254 28.8491 79.329 30.4251C79.3398 35.3553 79.348 40.2855 79.3527 45.2157C79.3583 50.9082 79.3733 56.6007 79.3964 62.2931C79.4136 66.692 79.422 71.0908 79.4239 75.4897C79.4252 78.1174 79.4304 80.7451 79.4447 83.3728C79.458 85.8454 79.4604 88.318 79.4545 90.7907C79.4543 91.6974 79.4579 92.6041 79.4657 93.5108C79.4758 94.7506 79.4718 95.9899 79.4643 97.2298C79.4705 97.5868 79.4768 97.9439 79.4832 98.3119C79.442 101.143 78.4527 103.59 75.8675 105.64C75.5388 105.802 75.21 105.963 74.8713 106.13C74.376 106.385 74.376 106.385 73.8707 106.645C72.0904 107.398 70.6055 107.556 68.623 107.57C68.0952 107.574 67.5674 107.579 67.0237 107.583C66.4457 107.586 65.8678 107.588 65.2723 107.591C64.3578 107.598 64.3578 107.598 63.4248 107.604C61.4027 107.618 59.3807 107.627 57.3587 107.636C56.668 107.639 55.9772 107.642 55.2656 107.645C51.6085 107.659 47.9515 107.67 44.2944 107.679C41.2694 107.687 38.2447 107.702 35.2199 107.725C31.5667 107.752 27.9138 107.765 24.2604 107.77C22.8697 107.773 21.479 107.782 20.0883 107.795C18.1381 107.812 16.1889 107.813 14.2386 107.809C13.3821 107.823 13.3821 107.823 12.5082 107.836C9.02323 107.808 6.75861 107.253 3.85682 105.742C0.815773 103.238 0.11451 100.586 0.155039 97.2278C0.150673 96.8388 0.146308 96.4498 0.14181 96.049C0.130095 94.7536 0.134565 93.4586 0.139107 92.1632C0.134144 91.2313 0.128228 90.2993 0.121435 89.3673C0.106179 86.8416 0.105493 84.3161 0.108385 81.7904C0.109607 79.6804 0.10403 77.5704 0.0985652 75.4604C0.0859134 70.4825 0.0854017 65.5046 0.0923058 60.5267C0.0992016 55.3937 0.0851385 50.2609 0.0608469 45.1279C0.040744 40.7176 0.0338975 36.3074 0.0376116 31.8971C0.0396797 29.2644 0.0366776 26.6318 0.0208217 23.9991C0.00647038 21.5238 0.00868527 19.0488 0.0235727 16.5734C0.0262718 15.666 0.0231528 14.7585 0.0137331 13.8511C0.00178186 12.6102 0.0110329 11.3705 0.0254988 10.1296C0.0170843 9.7723 0.00866952 9.41499 0 9.04685C0.0686612 6.23886 1.42013 4.55006 3.8757 2.53931C7.2846 0.266078 10.2555 -0.018049 14.6467 0.017193ZM3.85258 5.74643C2.78474 7.33153 3.01125 8.99977 3.12688 10.7462C3.13975 11.1175 3.15262 11.4889 3.16588 11.8715C3.19926 12.7808 3.25042 13.6897 3.30517 14.5984C3.71335 14.6859 4.12152 14.7734 4.54207 14.8636C12.2808 16.6818 19.63 19.9556 23.8644 25.4973C27.3439 30.6081 28.0096 34.9242 28.1612 40.6121C28.2943 44.2102 28.4346 46.9996 31.7248 49.7428C32.3316 50.2506 32.3316 50.2506 32.9506 50.7686C34.216 51.7478 35.5489 52.6146 36.9666 53.4554C37.765 54.7054 37.6813 55.6461 37.5371 57.0285C36.393 58.3012 34.6823 58.9487 32.9729 59.7083C33.0207 60.0099 33.0685 60.3116 33.1177 60.6225C33.2049 61.2201 33.2049 61.2201 33.2938 61.8298C33.3831 62.4205 33.3831 62.4205 33.4743 63.0231C33.5408 64.1321 33.3357 64.9015 32.9729 65.9611C33.1317 66.5415 33.1317 66.5415 33.2938 67.1335C33.3762 67.4836 33.4585 67.8336 33.5434 68.1943C33.1668 68.489 32.7903 68.7838 32.4023 69.0875C32.3727 70.5948 32.4338 72.0762 32.5472 73.58C32.606 75.0512 32.6102 76.0011 31.5149 77.2266C29.645 78.2906 28.094 78.2158 25.8791 78.1318C25.4712 78.1251 25.0633 78.1183 24.643 78.1113C22.9035 78.0822 21.1652 78.032 19.4265 77.9835C18.1542 77.9511 16.8821 77.9296 15.6095 77.9085C15.2196 77.8937 14.8296 77.8789 14.4278 77.8636C12.4164 77.8315 11.3669 77.9833 9.65165 78.835C8.15649 80.034 7.58705 81.1076 6.871 82.6819C6.6386 83.1788 6.40619 83.6756 6.16675 84.1875C5.67041 85.4085 5.29376 86.5851 5.01677 87.8461C4.76725 83.9756 4.88177 80.6481 8.1547 77.5735C10.6558 76.0072 12.7624 76.2491 15.7856 76.429C18.9238 76.5921 22.0534 76.7307 25.1994 76.764C25.7804 76.7704 26.3614 76.7767 26.96 76.7832C28.5483 76.7613 28.5483 76.7613 30.1202 75.787C30.2164 74.5726 30.2278 73.4507 30.1559 72.2419C29.9738 68.8128 29.9738 68.8128 31.2613 67.301C29.5668 66.4167 29.5668 66.4167 27.8381 65.5145C29.5325 64.6301 29.5325 64.6301 31.2613 63.7279C31.1789 63.4884 31.0965 63.2489 31.0117 63.0022C30.6368 61.7631 30.3757 60.5188 30.1202 59.2616C31.8147 58.3773 33.5092 57.493 35.255 56.5818C34.5373 53.7727 33.2356 53.2367 30.4857 51.5223C26.9821 48.7471 25.8281 46.2008 25.7895 42.3255C25.7948 41.853 25.8001 41.3806 25.8055 40.8939C25.637 33.0109 23.562 26.8115 16.5834 20.8983C13.2298 18.467 8.0589 15.4917 3.30517 15.4917C3.25186 26.5603 3.21162 37.6289 3.18693 48.6975C3.17516 53.8369 3.15912 58.9762 3.13301 64.1156C3.11026 68.595 3.09554 73.0744 3.09045 77.5539C3.08747 79.9258 3.08048 82.2976 3.06388 84.6694C3.04838 86.9023 3.04362 89.1351 3.04705 91.368C3.04642 92.1871 3.04189 93.0061 3.03313 93.8251C3.02175 94.9449 3.02452 96.0641 3.03074 97.1839C3.02076 97.6681 3.02076 97.6681 3.01059 98.1621C3.04715 100.603 3.88693 101.952 5.5873 103.925C8.13008 105.747 11.2109 105.457 14.4705 105.445C15.3811 105.45 15.3811 105.45 16.31 105.454C18.3156 105.463 20.321 105.461 22.3266 105.458C23.7214 105.46 25.1162 105.463 26.511 105.465C29.4342 105.469 32.3573 105.468 35.2805 105.464C39.0261 105.459 42.7715 105.468 46.5171 105.481C49.3975 105.489 52.2778 105.489 55.1582 105.486C56.5392 105.486 57.9202 105.489 59.3012 105.495C61.2323 105.501 63.163 105.496 65.0941 105.489C65.6642 105.493 66.2342 105.497 66.8216 105.502C70.0748 105.475 72.1069 105.261 74.6217 103.478C76.4323 101.615 76.5737 99.986 76.5391 97.721C76.5406 97.3689 76.5421 97.0168 76.5436 96.6541C76.5464 95.4758 76.537 94.2979 76.5276 93.1196C76.5271 92.2745 76.5274 91.4293 76.5284 90.5841C76.5289 88.2902 76.5188 85.9964 76.5069 83.7025C76.4962 81.3051 76.4952 78.9076 76.4931 76.5102C76.4878 71.9705 76.4738 67.4308 76.4566 62.8912C76.4375 57.7228 76.428 52.5544 76.4194 47.3861C76.4016 36.7546 76.3714 26.1231 76.3333 15.4917C69.8545 16.1435 64.5611 18.8224 60.432 22.7634C54.7961 28.7598 53.3113 34.3871 53.3393 41.6755C53.2428 45.6815 52.0706 48.8645 48.4173 51.777C47.566 52.3728 46.7143 52.9684 45.8544 53.5566C44.9253 54.2031 44.9253 54.2031 43.813 55.2419C43.6594 56.2289 43.6594 56.2289 44.3835 57.0285C45.4387 57.6433 45.4387 57.6433 46.7013 58.1171C47.9471 58.6824 47.9471 58.6824 48.9478 59.2616C49.3043 60.4619 49.3043 60.4619 48.9478 61.4948C48.5712 61.7896 48.1947 62.0843 47.8067 62.388C47.8067 62.8302 47.8067 63.2724 47.8067 63.7279C49.4854 64.7158 49.4854 64.7158 51.2299 65.5145C50.2885 65.9566 49.3471 66.3988 48.3772 66.8544C48.6611 68.0855 48.6611 68.0855 49.5183 69.0875C49.5896 70.2041 49.5896 70.2041 49.5183 71.3207C49.33 71.4681 49.1417 71.6155 48.9478 71.7673C48.6138 74.0258 48.6138 74.0258 49.5537 76.0631C51.2229 76.9948 52.8802 76.802 54.8447 76.7326C55.6842 76.7178 56.5237 76.7033 57.3631 76.689C58.6829 76.6585 60.0023 76.6244 61.3217 76.5854C62.5978 76.5502 63.8734 76.529 65.15 76.5093C65.7376 76.4857 65.7376 76.4857 66.3371 76.4616C68.5288 76.4351 69.3972 76.6232 71.1197 77.7203C74.1877 80.721 74.2839 83.2216 74.0512 86.9528C73.9475 86.6615 73.8438 86.3702 73.7369 86.07C72.1319 81.5405 72.1319 81.5405 68.3459 78.0202C66.3525 77.7868 66.3525 77.7868 64.1738 77.8806C63.4465 77.8915 62.7191 77.9025 61.9697 77.9138C59.8835 78.0155 57.86 78.2239 55.7942 78.4668C53.1385 78.6215 50.7435 78.6321 48.3772 77.5735C46.8726 76.4183 46.6704 75.8399 46.5185 74.1627C46.5351 73.5595 46.5606 72.9563 46.5943 72.3535C46.6386 71.2634 46.6623 70.1786 46.6656 69.0875C46.4774 68.9401 46.2891 68.7928 46.0951 68.6409C46.0703 67.7478 46.0723 66.8542 46.0951 65.9611C46.0951 65.5189 46.0951 65.0768 46.0951 64.6212C45.9068 64.4738 45.7185 64.3264 45.5246 64.1746C45.414 62.6164 45.6519 61.226 46.0951 59.7083C45.4479 59.4319 44.8007 59.1555 44.1339 58.8708C42.1727 58.0334 42.1727 58.0334 41.5308 57.0285C41.3169 55.7723 41.3169 55.7723 41.5308 54.3487C42.6362 53.3437 42.6362 53.3437 43.4118 52.8046C44.7015 51.89 45.8751 50.9094 47.0579 49.9103C47.4955 49.547 47.9331 49.1837 48.3839 48.8094C50.4484 46.6979 50.7999 44.5719 50.9201 41.9651C50.955 41.3934 50.99 40.8217 51.026 40.2326C51.0926 39.0463 51.1481 37.8604 51.1998 36.6735C51.6412 29.8386 54.7723 25.0114 61.0359 20.3209C65.4666 17.3597 70.7332 15.7041 76.3333 14.5984C77.1045 9.26661 77.1045 9.26661 74.7287 4.54916C72.8066 3.21164 71.2563 2.42815 68.651 2.42288C68.1295 2.41971 67.608 2.41655 67.0707 2.41329C66.2144 2.41495 66.2144 2.41495 65.3408 2.41664C64.7386 2.41436 64.1364 2.41208 63.5159 2.40972C61.5199 2.4035 59.524 2.40395 57.528 2.40497C56.143 2.40324 54.7581 2.4013 53.3731 2.39918C50.4675 2.39584 47.562 2.39597 44.6565 2.39832C40.9313 2.40091 37.2062 2.39335 33.481 2.38298C30.6198 2.37641 27.7585 2.37601 24.8972 2.37741C23.5237 2.37718 22.1502 2.37483 20.7768 2.37034C18.8564 2.36484 16.9363 2.36784 15.0159 2.37303C14.4473 2.36961 13.8787 2.3662 13.2929 2.36268C9.09367 2.38775 6.56541 3.05836 3.85258 5.74643Z" fill="#3E2B63" stroke="#3E2B63" stroke-width="2" mask="url(#path-1-inside-1_147_15517)"/>
<path d="M3.23328 99.8064C3.34791 100.387 3.52231 100.923 3.76648 101.441C4.21831 102.4 4.89233 103.275 5.78796 104.261L5.84167 104.32L5.91199 104.36C7.62827 105.331 9.05909 105.43 11.0272 105.441V105.442C11.544 105.447 12.0612 105.453 12.5936 105.458H12.5975C13.1593 105.459 13.721 105.459 14.2997 105.46V105.461C14.8952 105.465 15.4908 105.47 16.1044 105.474H16.1053C18.0751 105.488 20.0448 105.494 22.0135 105.502V105.503C23.3789 105.511 24.7449 105.52 26.1102 105.529C26.4195 105.531 26.7287 105.532 27.038 105.534L10.7186 105.658L10.7177 106.658C14.1039 106.692 17.4901 106.725 20.8817 106.759C20.4146 106.76 19.9475 106.762 19.4803 106.763H19.4794C18.3971 106.768 17.3145 106.776 16.2323 106.788C14.7178 106.804 13.2034 106.805 11.6864 106.804H11.6766C11.0124 106.816 11.0101 106.816 10.3368 106.828C8.75149 106.816 7.50442 106.626 6.37292 106.239C5.24787 105.854 4.21264 105.267 3.05457 104.432C2.3291 103.739 1.97288 103.334 1.79382 102.92C1.62459 102.528 1.59223 102.07 1.69324 101.209C1.78034 100.942 1.86846 100.676 1.95691 100.405H3.23523L3.23425 99.905C3.23421 99.8706 3.23331 99.8374 3.23328 99.8064ZM4.04773 15.196C11.5824 16.2431 16.8623 19.5299 22.2157 23.8123C27.0665 29.2059 28.0591 34.1296 28.2323 40.6257V40.6277C28.3058 43.0086 28.34 44.3106 28.7792 45.5134C29.2168 46.7119 30.0504 47.7949 31.577 49.7947L31.6102 49.8386L31.6522 49.8738C32.0035 50.1706 32.3548 50.4674 32.7167 50.7732L32.7255 50.781L32.7343 50.7878C34.1502 51.8825 35.6482 52.8487 37.1708 53.8142C37.5005 54.3523 37.6459 54.7981 37.6971 55.2478C37.7486 55.6994 37.7084 56.1752 37.6317 56.7976C36.3341 58.1048 34.9779 58.6682 32.8466 59.2244L32.1512 59.406L32.5634 59.9949C32.7509 60.2625 32.9382 60.5306 33.1307 60.8054C33.6883 62.2644 33.4862 63.253 33.1766 64.908L33.1727 64.9353C33.0261 66.0644 33.2791 67.0323 33.5448 68.0037C33.2545 68.2309 32.9635 68.4604 32.6649 68.6941L32.4745 68.8425L32.4725 69.0837C32.4645 70.2179 32.5027 71.3374 32.58 72.4607L32.6698 73.5867C32.7072 74.4151 32.6873 74.9687 32.5302 75.4685C32.3786 75.9504 32.0826 76.4262 31.4843 77.0554C30.5274 77.6266 29.7306 77.9127 28.8925 78.0466C28.0236 78.1855 27.092 78.1666 25.8475 78.1072L25.8339 78.1062L24.6005 78.0808C22.8723 78.0446 21.1456 77.9821 19.413 77.9216H19.411C18.1394 77.8811 16.8683 77.8533 15.5995 77.8269H15.5985C15.2154 77.8086 14.8321 77.7901 14.4374 77.7712H14.4237C13.313 77.7489 12.4966 77.7822 11.7274 77.9792C10.9525 78.1778 10.2594 78.5333 9.37488 79.0984L9.33093 79.1267L9.29382 79.1628C8.20401 80.2309 7.54698 81.1127 6.97351 82.3132L6.7323 82.8484C6.5507 83.2726 6.36862 83.6965 6.18152 84.1335L6.17761 84.1443L6.17371 84.1541C5.67111 85.4867 5.25473 86.8145 4.8866 88.157C4.75845 84.3985 4.95841 81.2054 7.578 77.9646C8.50106 77.2697 9.29736 76.8584 10.1708 76.6169C11.0653 76.3696 12.0691 76.2915 13.4188 76.2976C14.2202 76.345 15.0214 76.3967 15.8221 76.4529L15.828 76.4539L18.4169 76.6003C18.8423 76.6241 19.2677 76.6471 19.7059 76.6716C22.2036 76.8792 23.4952 76.9879 24.7577 76.9382C26.023 76.8884 27.2542 76.6803 29.6327 76.28L30.0614 76.2078L30.0497 75.7742L30.0096 74.2576L29.9784 72.2898V72.283L29.9491 71.2839C29.9391 70.4116 29.9411 69.8514 30.077 69.3298C30.2082 68.8266 30.4754 68.3243 31.0712 67.6248L31.5262 67.0916L30.8729 66.8357C30.005 66.496 29.1372 66.1561 28.2538 65.8103C28.8967 65.2931 29.2661 65.0028 29.5731 64.8025C29.952 64.5553 30.2267 64.4461 30.8729 64.1931L31.3192 64.0183L31.1639 63.5652C31.0831 63.33 31.0011 63.0953 30.9178 62.8533C30.5871 61.7593 30.3466 60.6575 30.1151 59.53C31.6984 58.7037 33.2849 57.8764 34.9159 57.0251L35.2655 56.8425L35.1698 56.4607C34.8806 55.307 34.7107 54.5952 34.2977 54.0242C33.8876 53.4572 33.2524 53.0498 32.2137 52.3679L32.2108 52.366L31.6288 51.9841C30.2835 51.0896 29.0237 50.1543 28.0223 49.1091C26.8867 47.9238 26.1075 46.6219 25.9003 45.1062C25.8706 44.4229 25.8503 43.7396 25.8358 43.0554L25.8065 40.9734V40.9617L25.7587 39.782C25.4711 33.9227 24.337 28.6401 19.6444 23.6355C19.3524 23.3208 19.0605 23.0057 18.7596 22.6814L18.7518 22.6726L18.743 22.6648L18.4266 22.3601C15.1242 19.2542 10.9005 17.3163 6.19421 15.8611C5.68087 15.7019 5.16745 15.5427 4.63855 15.3787H4.63757C4.44137 15.3182 4.24543 15.2569 4.04773 15.196Z" fill="#3E2B63" stroke="#3E2B63"/>
<path d="M46.0247 64.3774L45.8333 64.2271C45.7006 64.1232 45.5675 64.02 45.4329 63.9146C45.3178 62.4494 45.6873 61.3978 46.5266 59.9604L46.8596 59.3911L46.2209 59.2241C45.5935 59.0604 45.586 59.0583 44.9602 58.895C43.316 58.3087 42.4592 57.8423 41.4202 56.7827C41.2723 56.0647 41.2427 55.5878 41.3391 55.1548C41.4392 54.7053 41.6877 54.2457 42.2092 53.5864C43.276 52.7327 44.3322 51.9872 45.511 51.2231L45.5129 51.2222C48.0014 49.596 49.9274 47.7724 50.5754 45.0864L50.5833 45.0513L50.5872 45.0151C50.6772 44.0379 50.7429 43.0605 50.7932 42.0845C50.83 41.5099 50.8667 40.9352 50.9045 40.3433V40.3423C50.9806 39.141 51.0436 37.9409 51.1008 36.7407L51.0999 36.7397C51.4908 31.0737 53.546 26.823 58.4055 22.5669L58.4104 22.563C58.877 22.1433 58.8768 22.1425 59.3528 21.7144C63.497 18.2231 68.7503 16.3027 74.675 15.0981H75.7815C73.6479 15.5516 72.4854 15.8055 71.4329 16.1519C70.3043 16.5233 69.3059 16.9994 67.3821 17.9155L67.3625 17.9243L67.344 17.936C66.6358 18.3523 66.6357 18.3523 65.9133 18.7769L65.9084 18.7798C65.4991 19.0267 65.0889 19.2725 64.6672 19.5269C64.1686 19.7901 63.6702 20.0544 63.1565 20.3257L63.1223 20.3433L63.092 20.3657C57.8965 24.2132 53.927 30.1998 53.4875 35.9185L53.4866 35.9312L53.4856 35.9429C53.4313 37.8491 53.4032 39.755 53.4104 41.6636C53.3631 43.625 53.047 45.3453 52.3206 46.9253C51.5957 48.5016 50.4484 49.9665 48.6975 51.3999C47.8608 51.9971 47.0244 52.5938 46.1858 53.188L46.1809 53.1919C45.4451 53.7287 44.7477 54.294 44.0657 54.856L43.884 55.0063V56.8726L44.137 57.0161C45.4326 57.7527 46.7911 58.3419 48.1487 58.9419C48.4167 59.1226 48.6031 59.2481 48.7434 59.356C48.8862 59.4658 48.9546 59.5371 48.9973 59.5972C49.0818 59.7162 49.1212 59.8589 49.2219 60.3823C48.9755 61.5456 48.3856 62.309 47.4309 63.3989L46.9016 64.0034L47.677 64.2114C48.3416 64.3894 48.3481 64.3905 49.0139 64.5688C49.7727 64.8376 50.0672 64.9474 50.3254 65.1304C50.4946 65.2503 50.6514 65.4065 50.8948 65.6802C49.9221 65.934 49.6643 66.0019 48.2512 66.3706L47.468 66.5747L48.0012 67.1841C48.2758 67.4976 48.5508 67.8108 48.8333 68.1333C49.2644 68.7685 49.4882 69.2086 49.593 69.6392C49.6882 70.0304 49.6911 70.4505 49.6165 71.0552C49.4825 71.16 49.3479 71.2658 49.2102 71.3735L49.0354 71.5103L49.0198 71.731C48.8873 73.549 48.8872 73.5738 49.0198 75.3774L49.0334 75.5669L49.1711 75.6997C49.683 76.1944 50.0442 76.5596 50.5471 76.7241C50.7999 76.8068 51.0658 76.8334 51.3674 76.8384C51.6625 76.8433 52.0255 76.8264 52.4788 76.8062L52.4797 76.8071C53.2537 76.7949 54.0277 76.7772 54.801 76.7573C55.6405 76.7461 56.4801 76.7359 57.3196 76.7251H57.3215C58.6479 76.703 59.9743 76.6769 61.301 76.647C62.5782 76.6199 63.8559 76.6048 65.136 76.5903H65.1458C65.7351 76.5723 65.7357 76.5725 66.3362 76.5542C67.3452 76.5463 68.0726 76.5819 68.7502 76.7192C69.4132 76.8536 70.0507 77.09 70.8674 77.5083C72.2107 78.5606 73.0397 79.6201 73.5452 80.7642C74.0575 81.9236 74.253 83.2059 74.2756 84.7222C74.2656 85.5133 74.2409 86.304 74.2063 87.0952C73.7811 86.3009 73.4426 85.4915 73.1321 84.6099L73.1301 84.605L72.6965 83.4214C72.3012 82.3662 71.9971 81.6643 71.5598 81.0249C70.9794 80.1763 70.1712 79.4474 68.6819 78.0962L68.5579 77.9839L68.3918 77.9692L67.2122 77.8647C66.2703 77.791 65.8453 77.8032 64.1936 77.855C63.1062 77.8652 63.1023 77.8659 61.9856 77.8765H61.969C59.8545 77.9636 57.8206 78.1691 55.7424 78.4155C53.1193 78.5676 50.8423 78.5787 48.634 77.5854C47.8065 76.9446 47.3155 76.4982 46.9944 76.0122C46.6805 75.5371 46.5052 74.9862 46.3938 74.0913C46.4139 73.5147 46.4447 72.9381 46.4866 72.3618L46.4875 72.3501C46.5411 71.2644 46.5764 70.1825 46.595 69.0962L46.5999 68.8472L46.4036 68.6938C46.2762 68.5941 46.1489 68.4942 46.0198 68.3931C46.0016 67.5878 46.004 66.7812 46.0247 65.9741V64.3774Z" fill="#3E2B63" stroke="#3E2B63"/>
<path d="M59.5006 0.623413C61.4319 0.620024 63.3632 0.625703 65.2955 0.633179H65.2994C65.8736 0.630472 66.4482 0.627178 67.0397 0.62439C67.8255 0.63004 67.8263 0.630333 68.6295 0.636108H69.9772C70.6469 0.734103 71.0661 0.876251 71.4156 1.07458C71.7109 1.24211 71.975 1.46086 72.3121 1.77185C72.2118 2.00751 72.1114 2.24424 72.0094 2.48376C71.7955 2.48295 71.5796 2.48265 71.36 2.48181C63.4792 2.45221 55.5983 2.43038 47.7174 2.41638C43.9065 2.40939 40.0954 2.4003 36.2848 2.38513C32.6073 2.37058 28.9299 2.36224 25.2526 2.35876C23.8494 2.35629 22.4458 2.35134 21.0426 2.34412C19.0782 2.33441 17.1144 2.33275 15.151 2.33337H15.152C14.2791 2.32615 14.2788 2.32707 13.3883 2.3197V2.31873H13.3834C11.4559 2.32167 10.4208 2.32164 9.45569 2.52283C8.48676 2.72483 7.59831 3.12856 5.95276 3.87048L5.86975 3.90759L5.8053 3.97205C5.41928 4.35665 5.03296 4.74096 4.63538 5.13708C4.06071 5.68854 3.70861 5.97499 3.31116 6.15662C2.96726 6.31373 2.55797 6.40339 1.88733 6.47302C1.79265 6.28074 1.7421 6.16846 1.70276 6.04529C1.65324 5.89021 1.61888 5.71471 1.55432 5.34998C1.81758 5.00797 1.95627 4.83245 2.12463 4.65759C2.32311 4.45149 2.56476 4.24294 3.09729 3.78357L3.10315 3.77771C3.43142 3.48474 3.75953 3.19145 4.09729 2.89001C6.90794 0.953992 9.53586 0.662348 13.0114 0.633179H14.5641C15.4789 0.629657 15.4794 0.628959 16.4127 0.625366L16.4117 0.62439C18.4209 0.618509 20.4304 0.623764 22.441 0.628296H22.443L26.6373 0.62439C29.5637 0.622416 32.4901 0.624963 35.4166 0.631226C37.2953 0.635049 39.1739 0.636282 41.0524 0.635132L46.6881 0.626343H55.3424L59.5006 0.623413Z" fill="#3E2B63" stroke="#3E2B63"/>
<path d="M36.9979 55.6322C37.0652 55.7206 37.1184 55.7956 37.1688 55.8744C37.2766 56.0432 37.3743 56.2325 37.5633 56.6117C37.3663 57.117 37.1494 57.4346 36.8602 57.7045C36.5198 58.022 36.0593 58.2939 35.327 58.6957C34.6184 58.973 34.3121 59.0914 34.0438 59.1498C33.7859 59.2059 33.5581 59.2084 32.9725 59.2084H32.0125L32.5633 59.9955C32.7511 60.2636 32.9388 60.5317 33.1317 60.807C33.6884 62.2649 33.486 63.2534 33.1766 64.9076L33.1736 64.9213L33.1727 64.9349C33.0261 66.0639 33.2791 67.032 33.5447 68.0033C33.2545 68.2305 32.9634 68.46 32.6649 68.6937L32.4744 68.8422L32.4725 69.0844C32.4644 70.2186 32.5026 71.3379 32.5799 72.4613L32.6697 73.5863C32.7071 74.4149 32.6872 74.9683 32.5301 75.4681C32.3786 75.95 32.0825 76.4258 31.4842 77.0551C30.5273 77.6263 29.7306 77.9123 28.8924 78.0463C28.2406 78.1504 27.5534 78.1659 26.7254 78.142L25.8475 78.1068H25.8338C25.4268 78.0984 25.0197 78.0892 24.6004 78.0804C22.8722 78.0442 21.1455 77.9818 19.4129 77.9213H19.4109C18.1435 77.8808 16.8768 77.8538 15.6121 77.8275H15.6131C15.2251 77.809 14.8371 77.7909 14.4373 77.7719L14.4236 77.7709L13.6414 77.767C12.9074 77.7762 12.3042 77.8321 11.7274 77.9799C10.9524 78.1785 10.2594 78.5338 9.37482 79.099L9.33087 79.1263L9.29376 79.1635C8.20419 80.2313 7.54684 81.1126 6.97345 82.3129L6.73224 82.848C6.45976 83.4845 6.45945 83.4848 6.18146 84.1342L6.17365 84.1537C5.67098 85.4865 5.2547 86.8149 4.88654 88.1576C4.75835 84.3988 4.95801 81.2053 7.57794 77.9642C8.50087 77.2694 9.2974 76.859 10.1707 76.6176C11.0651 76.3703 12.0685 76.2911 13.4178 76.2972C14.2195 76.3447 15.0211 76.3973 15.8221 76.4535H15.8279C16.6908 76.5037 17.5538 76.5524 18.4168 76.6C18.8422 76.6238 19.2677 76.6468 19.7059 76.6713C22.2036 76.8788 23.4951 76.9876 24.7576 76.9379C26.0229 76.888 27.2541 76.6799 29.6326 76.2797L30.0613 76.2084L30.0496 75.7738L30.0096 74.2572C29.9989 73.6016 29.9884 72.946 29.9783 72.2904V72.2836L29.949 71.2845C29.939 70.412 29.9411 69.852 30.077 69.3304C30.2081 68.8272 30.4754 68.3249 31.0711 67.6254L31.5262 67.0912L30.8729 66.8353C30.005 66.4956 29.1371 66.1557 28.2537 65.8099C28.8963 65.293 29.2661 65.0034 29.5731 64.8031C29.9519 64.556 30.2267 64.4466 30.8729 64.1937L31.3192 64.0189L31.1639 63.5658L30.9139 62.8392C30.5858 61.7516 30.3462 60.6563 30.116 59.5355C30.7373 59.2199 31.36 58.9052 31.9842 58.5922L31.9861 58.5912C32.3888 58.3878 32.7914 58.1843 33.2059 57.975C33.7793 57.7226 34.0031 57.6264 34.2234 57.5785C34.4406 57.5314 34.6644 57.5287 35.2547 57.5287H35.4852L35.6356 57.3529C36.401 56.4554 36.5554 56.2717 36.9979 55.6322Z" fill="#3E2B63" stroke="#3E2B63"/>
<path d="M75.7816 15.0981C73.6479 15.5516 72.4855 15.8055 71.4329 16.1519C70.3044 16.5233 69.306 16.9995 67.3821 17.9155L67.3626 17.9243L67.3441 17.936C66.8719 18.2135 66.3989 18.4909 65.9124 18.7769L65.9075 18.7798C65.5006 19.0253 65.0932 19.2701 64.6741 19.5229C63.9298 19.9159 63.9249 19.9195 63.1556 20.3257L63.1224 20.3433L63.0921 20.3657C56.2038 25.4667 53.6672 32.2524 53.2591 39.3491L53.2259 40.0376L53.1595 41.4692C53.1357 41.9861 53.1151 42.5031 53.0931 43.02C53.0167 42.6015 52.9404 42.1799 52.8626 41.7534L52.7884 41.3433H51.3743L51.3069 41.7642C51.2509 42.1154 51.1942 42.4666 51.138 42.8188C51.1336 42.2136 51.127 41.608 51.1234 41.0024V40.9995C51.1186 40.5897 51.1136 40.1796 51.1087 39.7573C51.0936 36.3313 51.4447 33.3344 52.5267 30.5513C53.607 27.7725 55.4292 25.1737 58.4056 22.5669L58.4105 22.563C58.7216 22.2832 59.0323 22.0026 59.3528 21.7144C63.497 18.2231 68.7504 16.3027 74.6751 15.0981H75.7816Z" fill="#3E2B63" stroke="#3E2B63"/>
<path d="M3.23328 99.8064C3.34791 100.387 3.52231 100.923 3.76648 101.441C4.21831 102.4 4.89233 103.275 5.78796 104.261L5.84167 104.32L5.91199 104.36C7.62827 105.331 9.05909 105.43 11.0272 105.441V105.442C11.544 105.447 12.0612 105.453 12.5936 105.458H12.5975C13.1593 105.459 13.721 105.459 14.2997 105.46V105.461C14.8952 105.465 15.4908 105.47 16.1044 105.474H16.1053C18.0751 105.488 20.0448 105.494 22.0135 105.502V105.503C23.3789 105.511 24.7449 105.52 26.1102 105.529C26.4195 105.531 26.7287 105.532 27.038 105.534L10.7186 105.658L10.7177 106.658C14.1039 106.692 17.4901 106.725 20.8817 106.759C20.4146 106.76 19.9475 106.762 19.4803 106.763H19.4794C18.3971 106.768 17.3145 106.776 16.2323 106.788C14.7178 106.804 13.2034 106.805 11.6864 106.804H11.6766C11.0124 106.816 11.0101 106.816 10.3368 106.828C8.75149 106.816 7.50442 106.626 6.37292 106.239C5.24787 105.854 4.21264 105.267 3.05457 104.432C2.3291 103.739 1.97288 103.334 1.79382 102.92C1.62459 102.528 1.59223 102.07 1.69324 101.209C1.78034 100.942 1.86846 100.676 1.95691 100.405H3.23523L3.23425 99.905C3.23421 99.8706 3.23331 99.8374 3.23328 99.8064ZM4.08972 15.1794C4.49729 15.2212 4.90455 15.2646 5.3114 15.3103C5.21721 15.3421 5.11372 15.3779 4.99792 15.4167C4.69645 15.3381 4.39463 15.259 4.08972 15.1794Z" fill="#3E2B63" stroke="#3E2B63"/>
<path d="M46.595 59.3216L46.2209 59.2249C45.8048 59.1163 45.3886 59.0076 44.9602 58.8958C43.316 58.3095 42.4591 57.8429 41.4202 56.7835C41.2722 56.065 41.2427 55.5878 41.3391 55.1546C41.4391 54.7058 41.6873 54.2469 42.2073 53.5892C43.2749 52.7346 44.3312 51.9876 45.511 51.223L45.5129 51.222C48.1431 49.5068 50.7694 47.0345 51.3323 44.1234L51.3391 44.0901L51.3411 44.056C51.3589 43.7295 51.3764 43.403 51.3948 43.0667C51.4168 42.71 51.4385 42.3532 51.4612 41.9857L51.4622 41.9788C51.4798 41.6103 51.4977 41.2413 51.5159 40.8616L51.5149 40.8607L51.5823 39.7298C51.5967 39.4809 51.6077 39.2316 51.6213 38.9827C51.7057 39.5109 51.7911 40.0433 51.8772 40.5823L51.9446 41.0032H52.5374C52.8439 42.4551 53.0157 43.7179 52.9055 44.931C52.7876 46.229 52.344 47.497 51.344 48.8831C49.8315 50.4682 48.0755 51.8414 46.1799 53.1976L46.179 53.1995C45.4413 53.7323 44.7451 54.2959 44.0657 54.8558L43.884 55.0062V56.8724L44.137 57.0169C45.4322 57.7532 46.7905 58.3419 48.1477 58.9417C48.4165 59.123 48.6015 59.2471 48.7395 59.3548C48.879 59.4637 48.9419 59.5333 48.9797 59.5911C49.0602 59.7141 49.0934 59.8701 49.1731 60.4612C49.1456 60.6373 49.1178 60.8136 49.0901 60.9915C48.5088 60.9899 48.1893 60.9842 47.8713 60.9427C47.5426 60.8998 47.2119 60.8192 46.595 60.6595V59.3216Z" fill="#3E2B63" stroke="#3E2B63"/>
<path d="M30.2268 6.12183H30.2288C30.9302 6.12277 30.9303 6.12281 31.6458 6.12378C33.145 6.12629 34.6448 6.13178 36.1448 6.13745H36.1458L39.1887 6.14429C41.5604 6.14898 43.9321 6.15524 46.304 6.16382C46.5144 6.79494 46.5518 6.94888 46.6868 7.68335C46.1282 8.07838 45.6648 8.25207 45.1614 8.33374C44.5476 8.43327 43.8818 8.4017 42.8528 8.40503C42.4112 8.40182 41.9689 8.39857 41.5139 8.39526H41.511L40.1389 8.39429C39.1819 8.39294 38.2248 8.39004 37.2678 8.38452C35.7952 8.37636 34.3231 8.37465 32.8518 8.37476H32.8528C31.924 8.37256 30.9945 8.37 30.0657 8.36694H30.0647C29.4014 8.3662 29.4008 8.36673 28.7249 8.36597H28.7258C27.1538 8.35497 26.4245 8.34798 25.9993 8.28882C25.8037 8.2616 25.7041 8.22648 25.6292 8.18823C25.5798 8.163 25.5324 8.13247 25.47 8.08667C25.4193 7.28489 25.4192 7.17237 25.47 6.36987C25.6135 6.26451 25.6845 6.23384 25.8293 6.20581C26.0987 6.15374 26.5432 6.141 27.5706 6.11499C28.4559 6.11508 29.3413 6.11738 30.2268 6.12183Z" fill="#3E2B63" stroke="#3E2B63"/>
<path d="M7.79657 16.1801C13.2104 17.0179 17.8361 19.9158 21.6677 23.0786C25.3969 26.813 28.0402 31.3356 27.9294 35.9838H26.3317L26.2585 36.2104C26.2058 35.9215 26.1423 35.5732 26.0475 35.0541L25.9733 34.643H25.361C25.2706 34.3308 25.1795 34.0166 25.0866 33.6957L25.0847 33.6889C24.0247 30.2111 22.7793 27.1996 20.1823 24.2289L19.6452 23.6352C19.3531 23.3204 19.0604 23.0055 18.7595 22.6811L18.7516 22.6733L18.7438 22.6645L18.4538 22.3862C15.48 19.5972 11.6717 17.9288 7.79657 16.1801Z" fill="#3E2B63" stroke="#3E2B63"/>
<path d="M69.1635 107.099C67.8225 107.24 66.4096 107.274 64.809 107.252H62.9281C60.9022 107.25 58.8764 107.233 56.848 107.216H56.8451C55.4327 107.211 54.0202 107.209 52.6078 107.207C50.6457 107.202 48.6833 107.193 46.7211 107.182C54.2022 107.124 61.6823 107.087 69.1635 107.099ZM73.559 103.793C74.0474 103.373 74.7461 103.11 75.808 103.191C75.9873 103.251 76.1667 103.312 76.348 103.373C76.3036 103.678 76.2678 103.919 76.2279 104.119C76.1719 104.399 76.1178 104.565 76.0541 104.687C75.9321 104.922 75.7436 105.074 75.1293 105.524C74.1472 105.948 73.2164 106.273 72.2963 106.522C72.3545 106.245 72.4131 105.966 72.473 105.681C72.7096 104.888 73.0496 104.231 73.559 103.793Z" fill="#3E2B63" stroke="#3E2B63"/>
<path d="M46.024 64.3775L45.8326 64.2271C45.6973 64.1212 45.5619 64.0154 45.4244 63.9078C45.3502 63.3184 45.3379 62.9308 45.4196 62.5777C45.5063 62.2031 45.7101 61.8168 46.1715 61.2554C46.3536 61.0951 46.5357 60.9346 46.7203 60.772C46.9652 60.9198 47.1052 61.0084 47.2399 61.1138C47.3965 61.2364 47.549 61.3829 47.8434 61.6724C47.7775 62.1116 47.7421 62.339 47.6881 62.5504C47.6253 62.7961 47.539 63.0249 47.3395 63.5504L47.1432 64.0679L47.6774 64.2105C48.1184 64.3286 48.5593 64.4473 49.0133 64.5689C49.7725 64.8379 50.0675 64.9473 50.3258 65.1304C50.495 65.2504 50.6517 65.4065 50.8951 65.6802C50.0236 65.9077 49.1471 66.1367 48.2506 66.3707L47.4674 66.5748L48.0006 67.1841C48.2757 67.4981 48.5516 67.8113 48.8346 68.1343C49.3019 68.8218 49.534 69.237 49.6383 69.6422C49.7383 70.0308 49.7295 70.4567 49.6031 71.1822C49.1493 72.27 48.6275 73.3193 48.0719 74.3941H46.736V75.2867H46.6022C46.6065 74.976 46.6105 74.6632 46.6149 74.3443V74.3414C46.6202 73.7186 46.6254 73.0959 46.6305 72.4732C46.6353 72.1575 46.6402 71.8414 46.6451 71.5162V71.5113C46.6501 70.6928 46.6242 69.8765 46.5944 69.0689L46.5865 68.8365L46.403 68.6939L46.0192 68.3931C46.001 67.5878 46.0034 66.7813 46.024 65.9742V64.3775Z" fill="#3E2B63" stroke="#3E2B63"/>
<path d="M64.9988 77.68C65.8354 77.6528 66.2078 77.6423 66.5828 77.6859C66.8413 77.7159 67.1037 77.7746 67.5203 77.8792C66.6233 77.7923 65.7521 77.7294 64.8524 77.6907C64.9011 77.687 64.9499 77.6837 64.9988 77.68ZM68.8455 76.7474C69.4871 76.8782 70.106 77.0971 70.8397 77.4525C72.3198 78.6569 73.1731 79.8645 73.66 81.1614C74.1543 82.4783 74.285 83.9239 74.2645 85.6234C74.2472 86.1138 74.2277 86.6037 74.2059 87.0931C73.7812 86.2993 73.4429 85.4907 73.1326 84.6097L73.1307 84.6048L72.6961 83.4212C72.3002 82.3664 71.9956 81.665 71.5584 81.0257C70.9945 80.2012 70.2157 79.4902 68.8065 78.2103L68.8455 78.221V76.7474Z" fill="#3E2B63" stroke="#3E2B63"/>
<path d="M54.5724 30.2839C54.5498 30.3679 54.5269 30.4525 54.504 30.5378L54.5021 30.5446C53.6919 33.7546 53.3545 36.8722 53.2267 40.1169C53.2046 40.5845 53.182 41.0521 53.1593 41.5339V41.5349C53.1361 42.0322 53.1165 42.5297 53.0948 43.027C53.0181 42.6063 52.9407 42.1825 52.8624 41.7536L52.7882 41.3425H51.3741L51.3068 41.7643C51.2508 42.115 51.194 42.4655 51.1378 42.8171C51.1334 42.2124 51.1278 41.6076 51.1241 41.0026V40.9997L51.1095 39.7575C51.0926 35.9967 51.0869 34.1902 51.297 32.9997C51.4841 31.94 51.8369 31.3967 52.631 30.2839H54.5724Z" fill="#3E2B63" stroke="#3E2B63"/>
<path d="M72.2479 1.9231C72.1689 2.10846 72.0896 2.29466 72.0096 2.48267C64.8054 2.43186 57.6008 2.38132 50.3699 2.33032C51.908 2.32026 53.4461 2.31169 54.9842 2.30103C56.3556 2.2919 57.7271 2.28322 59.0984 2.27563C61.0142 2.26491 62.9302 2.25164 64.8455 2.23755L64.8445 2.23657C65.4166 2.234 65.9886 2.23238 66.5779 2.22974H66.5799C67.0997 2.22537 67.6196 2.22057 68.1551 2.21606C68.8347 2.21174 68.8349 2.21266 69.5281 2.20825H69.5291C70.0837 2.20375 70.4341 2.20343 70.7791 2.12524C71.0772 2.05765 71.3627 1.93037 71.7801 1.74048C71.99 1.82262 72.1041 1.86683 72.2479 1.9231Z" fill="#3E2B63" stroke="#3E2B63"/>
<path d="M22.0623 77.1C22.6265 77.0801 23.1906 77.0596 23.7547 77.0394C24.1739 77.0294 24.5933 77.0205 25.0252 77.0101H25.0291C26.2108 76.9718 26.8585 76.9516 27.4705 76.8304C28.0851 76.7088 28.6571 76.4869 29.6942 76.0863L29.8152 76.0394L29.8983 75.9398C30.6497 75.04 31.14 74.1212 31.5828 73.1605H32.5223C32.5846 73.7439 32.6306 74.1952 32.6502 74.5648C32.6745 75.0229 32.6579 75.317 32.6024 75.5472C32.4975 75.9818 32.2434 76.2758 31.4998 77.0648C29.8115 78.0526 28.5181 78.2014 26.574 78.1429L25.6873 78.1068H25.6756C25.2803 78.0967 24.8846 78.0859 24.4774 78.0756H24.4783C23.6736 78.0538 22.8688 78.0214 22.0623 77.9867V77.1Z" fill="#3E2B63" stroke="#3E2B63"/>
<path d="M17.2069 46.0349C19.1731 45.9228 20.1099 45.8702 20.7635 45.9089C21.335 45.9428 21.6764 46.0456 22.3739 46.28C22.67 46.7557 22.8169 46.9953 22.9354 47.2273C23.0189 47.3906 23.0876 47.5523 23.1854 47.7947C21.8096 48.2219 20.5171 48.1558 18.8085 48.1824H18.8046C18.1151 48.1989 17.4256 48.2142 16.7157 48.2312C15.6067 48.1232 14.8632 47.959 14.2147 47.6843C13.6104 47.4283 13.0641 47.063 12.3632 46.5105V46.3318C13.5847 46.2553 14.8068 46.1817 16.0292 46.1101H16.0321C16.4195 46.0852 16.8069 46.0596 17.2059 46.0339L17.2069 46.0349Z" fill="#3E2B63" stroke="#3E2B63"/>
<path d="M59.3389 45.9697H59.3398C60.07 46.0021 60.071 46.0012 60.8145 46.0342V46.0352C61.3265 46.0602 61.8386 46.0846 62.3662 46.1104L62.3682 46.1113C62.8825 46.1346 63.3969 46.1576 63.9268 46.1816C64.7685 46.22 65.6105 46.2606 66.4521 46.3008C65.4946 47.078 64.9409 47.4844 64.4092 47.7197C63.7417 48.0151 63.0988 48.0447 61.5684 48.1006C60.9694 48.0994 60.37 48.0998 59.7529 48.0986H59.751L57.9131 48.1016C57.1356 48.0718 56.7963 48.0572 56.5078 48.0029C56.3271 47.9689 56.1652 47.9156 55.916 47.8232C56.1276 47.395 56.2964 47.0582 56.4443 46.79C56.6474 46.4218 56.787 46.2252 56.9043 46.1113C57.0819 45.939 57.2225 45.9134 57.9941 45.9062C58.6486 45.9368 58.6562 45.9379 59.3389 45.9697Z" fill="#3E2B63" stroke="#3E2B63"/>
<path d="M25.0172 27.8375C27.2144 30.1074 28.1275 33.1259 27.9479 35.983H26.3317L26.2584 36.2105C26.1886 35.8281 26.1185 35.4425 26.0475 35.0533L25.9733 34.6431H25.3512C24.7131 32.6347 24.403 31.6359 24.275 30.8843C24.1521 30.1626 24.1986 29.6802 24.3229 28.6529C24.5531 28.3826 24.7836 28.1117 25.0172 27.8375Z" fill="#3E2B63" stroke="#3E2B63"/>
<path d="M1.0932 6.6123V7.65234L1.72015 7.48926C2.08033 7.39527 2.44049 7.3012 2.80511 7.20605V14.6328C2.36852 14.7183 1.93052 14.8038 1.48676 14.8906C1.32048 12.1572 1.15457 9.41928 0.983826 6.6123H1.0932Z" fill="#3E2B63" stroke="#3E2B63"/>
<path d="M26.2122 36.6066L26.3088 36.9835H27.9084V44.0577C27.8221 43.9564 27.735 43.8546 27.6477 43.7521L27.3899 43.4484L27.0364 43.6329C26.5276 43.8985 26.3243 44.0046 26.0559 44.1447V35.9933C26.1078 36.1963 26.1596 36.4007 26.2122 36.6066Z" fill="#3E2B63" stroke="#3E2B63"/>
<path d="M71.9186 80.5222L72.024 80.6873L72.2135 80.7371C72.6987 80.8637 73.1842 80.9894 73.6803 81.1189C74.2251 82.535 74.1829 83.8496 74.1578 85.4656V85.4695C74.1553 85.7827 74.1527 86.096 74.15 86.4187C74.1484 86.6058 74.1442 86.7931 74.1422 86.9802C73.7232 86.1839 73.3855 85.3688 73.068 84.49C72.8691 83.8025 72.7512 83.3889 72.5475 83.0085C72.3593 82.6574 72.1013 82.3423 71.6871 81.8455C71.6343 81.0145 71.6316 80.8954 71.6783 80.1472C71.7575 80.2712 71.8378 80.3958 71.9186 80.5222Z" fill="#3E2B63" stroke="#3E2B63"/>
<path d="M28.0438 77.1802C28.1271 77.4411 28.2105 77.7026 28.2947 77.9664H22.0623V77.1802H28.0438Z" fill="#3E2B63" stroke="#3E2B63"/>
<path d="M7.78973 16.1118C10.8276 16.5035 13.3049 17.7831 16.0651 19.1586C15.9466 19.2514 15.8278 19.3449 15.7077 19.4389C13.9301 19.2493 12.5375 18.5526 10.9011 17.7758L10.8991 17.7748L9.43427 17.0883C8.8278 16.7696 8.29429 16.4541 7.78973 16.1118Z" fill="#3E2B63" stroke="#3E2B63"/>
<path d="M15.9814 19.8857C16.2919 19.8857 16.6523 19.9208 17.4102 19.998C19.2732 21.0759 20.4271 22.0707 20.9404 23.623C20.6218 23.7062 20.3014 23.7893 19.9766 23.874C19.1863 23.1972 18.3975 22.5187 17.6094 21.8398L16.1748 20.6084H16.1758C15.8076 20.2738 15.5796 20.064 15.4346 19.9209C15.647 19.8966 15.8068 19.8858 15.9814 19.8857Z" fill="#3E2B63" stroke="#3E2B63"/>
<path d="M8.70087 79.3625C8.39716 79.5751 8.09953 79.8039 7.79852 80.052V79.1848C8.03557 79.2312 8.28202 79.2806 8.70087 79.3625ZM7.60809 79.1477L7.11688 79.3411C7.05666 79.3646 7.00256 79.3855 6.9538 79.4045C6.9922 79.2843 7.03031 79.1635 7.06903 79.0422C7.28888 79.0853 7.45514 79.1178 7.60809 79.1477ZM14.2155 77.1663V77.1838C13.5319 77.3562 13.4053 77.3886 12.4899 77.6194L12.4811 77.6213L12.4733 77.6233C11.2774 77.9692 10.3456 78.3607 9.51044 78.845V77.8821C10.3734 77.4606 11.0621 77.2705 11.7809 77.1897C12.4861 77.1105 13.2241 77.1348 14.2155 77.1663Z" fill="#3E2B63" stroke="#3E2B63"/>
<path d="M51.5059 34.3442C51.8214 35.9236 51.9277 37.4538 51.9062 39.101V39.102C51.9011 39.6156 51.8969 40.1295 51.8916 40.6586C51.8877 40.886 51.8838 41.1134 51.8799 41.3432H51.374L51.3066 41.7641C51.2508 42.1137 51.1947 42.4633 51.1387 42.8139C51.134 42.1731 51.1278 41.5322 51.124 40.8911V40.8881L51.1094 39.601C51.1013 37.7728 51.1428 36.0732 51.5059 34.3442Z" fill="#3E2B63" stroke="#3E2B63"/>
<path d="M73.108 1.81763C74.2416 2.27421 74.772 2.50002 75.0924 2.72388C75.3721 2.91938 75.4714 3.09558 75.7408 3.66138C75.7481 3.71604 75.7561 3.77064 75.7633 3.82544H74.9186L74.7711 4.05688C74.68 4.19954 74.5885 4.34193 74.4967 4.4856C73.8152 3.95205 73.1311 3.41693 72.4342 2.87134C72.657 2.52255 72.8812 2.17279 73.108 1.81763Z" fill="#3E2B63" stroke="#3E2B63"/>
<path d="M48.3666 72.1625C48.2321 72.8999 48.098 73.6401 47.9604 74.3939H46.7358V75.2875H46.5854C46.557 73.8655 46.5499 73.1569 46.6088 72.6957C46.6527 72.3527 46.7267 72.173 46.9067 71.8763C47.5644 72.0051 47.7613 72.044 48.3666 72.1625Z" fill="#3E2B63" stroke="#3E2B63"/>
<path d="M61.5244 20.7275C61.4458 21.3072 61.3479 21.6619 61.1611 21.9687C60.9346 22.3405 60.5507 22.6936 59.7695 23.247C59.4538 23.4181 59.1378 23.5889 58.8173 23.7626C58.6034 23.4277 58.3885 23.0916 58.1708 22.7509C59.1087 22.0167 60.0492 21.2807 61.0117 20.5273C61.1816 20.5938 61.3523 20.6601 61.5244 20.7275Z" fill="#3E2B63" stroke="#3E2B63"/>
<path d="M65.7402 77.0735H58.4072C58.3636 76.9711 58.3192 76.8688 58.2753 76.7659C60.7479 76.8677 63.2242 76.9698 65.7402 77.0735Z" fill="#3E2B63" stroke="#3E2B63"/>
<path d="M51.3713 6.18915C52.1553 6.29646 52.9361 6.41808 53.7121 6.55438C53.8965 7.05385 53.9408 7.19126 54.0803 7.70184C53.9872 7.76524 53.9355 7.78813 53.8576 7.80634C53.6696 7.85023 53.3754 7.85828 52.6193 7.87274C52.0882 7.86208 51.9713 7.85952 51.6086 7.85223C51.4645 7.34075 51.3347 6.82641 51.217 6.31024C51.2682 6.27011 51.3195 6.22965 51.3713 6.18915Z" fill="#3E2B63" stroke="#3E2B63"/>
<path d="M27.5891 40.6771C27.6115 41.027 27.6334 41.377 27.6565 41.7376V41.7415C27.6803 42.0789 27.7042 42.4164 27.7288 42.764V42.765C27.7497 43.0759 27.7707 43.387 27.7922 43.7073L27.7932 43.7142L27.7942 43.722C27.8389 44.183 27.8645 44.4753 27.969 44.8079C28.0092 44.936 28.0626 45.0693 28.1292 45.223C27.5951 45.1394 27.0581 45.0554 26.5129 44.97C26.5147 44.9665 26.5161 44.9627 26.5178 44.9593C26.6038 44.7911 26.6775 44.7265 27.0051 44.47L27.1702 44.3401L27.1936 44.1321C27.3295 42.9227 27.4362 41.7222 27.5168 40.511C27.5272 40.3681 27.5367 40.2251 27.5471 40.0814L27.5891 40.6771Z" fill="#3E2B63" stroke="#3E2B63"/>
<path d="M77.3231 100.054C77.4946 100.257 77.6279 100.416 77.7323 100.555C77.8775 100.748 77.9471 100.873 77.9852 100.977C78.06 101.182 78.0511 101.393 77.9803 102.09C77.8693 102.424 77.7568 102.757 77.6434 103.097C77.3646 103.206 77.2586 103.249 76.995 103.352C76.6771 103.092 76.5101 102.952 76.3553 102.791C76.1931 102.621 76.0419 102.426 75.7509 102.044C75.8958 101.604 75.9712 101.387 76.0741 101.186C76.1857 100.968 76.3313 100.762 76.6542 100.316C76.8759 100.229 77.0981 100.142 77.3231 100.054Z" fill="#3E2B63" stroke="#3E2B63"/>
<path d="M37.6081 54.6895V55.5557C37.4978 55.4694 37.387 55.3825 37.2751 55.2949L36.9186 55.0156L36.6052 55.3428C36.1156 55.8538 35.6254 56.3641 35.1247 56.8867C34.9924 56.8349 34.8598 56.7827 34.7263 56.7305L34.9138 56.1123C35.0078 55.838 35.0884 55.6032 35.1384 55.4053C35.1907 55.1977 35.2217 54.9866 35.1872 54.7637C35.1521 54.5378 35.0574 54.3479 34.9421 54.1709C34.8814 54.0777 34.8078 53.9783 34.7253 53.8711C34.7778 53.7888 34.8315 53.7069 34.8845 53.624C35.7841 53.9761 36.6863 54.3287 37.6081 54.6895Z" fill="#3E2B63" stroke="#3E2B63"/>
<path d="M66.3252 46.3627C65.8266 46.753 65.3246 47.1457 64.8154 47.5443C63.9129 47.29 63.271 47.0732 62.6846 46.7894C62.4268 46.6647 62.1767 46.5251 61.917 46.3627H66.3252Z" fill="#3E2B63" stroke="#3E2B63"/>
<path d="M49.614 69.4042C49.651 69.8168 49.6696 70.0367 49.6696 70.246C49.6696 70.4318 49.654 70.611 49.6247 70.915C48.7707 71.114 48.371 71.1972 48.0563 71.1972C47.8191 71.1972 47.6306 71.1505 47.2712 71.0175C47.4011 70.5966 47.5397 70.2624 47.7165 69.9423C47.9084 69.595 48.154 69.2514 48.5036 68.8242C48.8707 69.0158 49.2391 69.2086 49.614 69.4042Z" fill="#3E2B63" stroke="#3E2B63"/>
<path d="M76.8329 4.37201C76.9692 4.46711 77.0824 4.54888 77.1932 4.63568C77.4269 4.81858 77.6547 5.02314 78.0809 5.4101C78.0323 5.74353 78.0058 5.90297 77.9608 6.04388C77.9245 6.1575 77.8736 6.26107 77.7772 6.4433C77.2452 6.33918 76.7115 6.23427 76.1678 6.12787C76.0577 5.69655 75.9477 5.26403 75.8358 4.82611H76.8329V4.37201Z" fill="#3E2B63" stroke="#3E2B63"/>
<path d="M74.3218 105.497C74.2605 105.598 74.2017 105.674 74.1295 105.745C73.9185 105.951 73.5923 106.13 72.773 106.558C72.5911 106.568 72.4321 106.577 72.2896 106.584C72.3723 106.261 72.4553 105.937 72.5386 105.611L72.6724 105.821L73.0064 105.755C73.4434 105.67 73.8804 105.584 74.3218 105.497Z" fill="#3E2B63" stroke="#3E2B63"/>
<path d="M2.88904 100.405C3.0174 101.109 3.14586 101.814 3.27673 102.531H2.46033L2.31287 102.763C2.2451 102.869 2.1768 102.974 2.10876 103.081C2.03243 102.988 1.96561 102.905 1.90857 102.829C1.7656 102.637 1.70013 102.516 1.66638 102.416C1.59834 102.213 1.61666 101.999 1.72693 101.264C1.80773 100.979 1.88902 100.694 1.97107 100.405H2.88904Z" fill="#3E2B63" stroke="#3E2B63"/>
<path d="M32.0669 76.3248C31.3757 76.8817 30.671 77.4292 29.9536 77.9664H29.3667C29.2538 77.5244 29.1407 77.0809 29.0259 76.6314C29.2156 76.5979 29.407 76.5651 29.6011 76.5308L29.6001 76.5298C30.1417 76.4524 30.504 76.4045 30.7896 76.2906C31.0015 76.2059 31.1664 76.0861 31.3345 75.9429C31.5775 76.0698 31.8213 76.1966 32.0669 76.3248Z" fill="#3E2B63" stroke="#3E2B63"/>
<path d="M55.7831 28.5318C55.6771 28.7806 55.5715 29.0307 55.4637 29.2838H53.2499C53.43 29.0084 53.5947 28.7995 53.7909 28.6129C54.0861 28.3319 54.4676 28.0813 55.1044 27.7359C55.3287 27.9993 55.5545 28.2634 55.7831 28.5318Z" fill="#3E2B63" stroke="#3E2B63"/>
<path d="M62.8837 46.8093L62.2919 47.1179L62.9033 47.5964C63.0344 47.6991 63.1652 47.802 63.2968 47.905C62.7004 48.0462 62.1426 48.0779 61.4843 48.0798L61.6474 48.0593L61.3886 47.4529C61.2975 47.2388 61.206 47.0249 61.1142 46.8093H62.8837Z" fill="#3E2B63" stroke="#3E2B63"/>
<path d="M71.9517 15.9067C71.1528 16.3531 70.3091 16.6818 69.2379 17.0903H69.2369L67.6636 17.6938C67.4876 17.7605 67.3115 17.827 67.1343 17.894V17.1812C69.0112 16.4903 69.9405 16.1557 70.7037 16.0063C71.1222 15.9244 71.4903 15.8986 71.9517 15.9067Z" fill="#3E2B63" stroke="#3E2B63"/>
<path d="M33.3516 63.3346C33.2806 63.7239 33.2089 64.1152 33.1368 64.5104C32.1449 64.381 31.844 64.342 30.9717 64.2281H32.3321V63.3346H33.3516ZM33.5479 62.2565C33.5229 62.3937 33.4978 62.5311 33.4727 62.6686V62.2272C33.4977 62.237 33.5228 62.2467 33.5479 62.2565Z" fill="#3E2B63" stroke="#3E2B63"/>
<path d="M47.746 61.6353C47.6436 61.8379 47.5757 61.9673 47.4921 62.0982C47.3773 62.278 47.2335 62.4645 46.9413 62.8423C46.437 62.9815 46.1832 63.0507 45.9453 63.0972C45.8353 63.1188 45.7281 63.1351 45.5995 63.1519C45.7036 62.7414 45.8145 62.4005 45.9648 62.0748C46.1433 61.688 46.3828 61.3072 46.7431 60.8502C47.0749 61.1099 47.4081 61.3708 47.746 61.6353Z" fill="#3E2B63" stroke="#3E2B63"/>
<path d="M55.2552 25.9289C55.51 26.0901 55.6569 26.1865 55.7982 26.2971C55.9556 26.4203 56.1083 26.5629 56.3929 26.8332C56.334 27.1499 56.3016 27.3126 56.2542 27.4611C56.2209 27.5653 56.1788 27.664 56.1126 27.8078C55.5226 27.5769 54.9299 27.3449 54.3235 27.1076C54.3741 26.9394 54.4253 26.8127 54.4857 26.7023C54.6162 26.4638 54.7964 26.2936 55.2552 25.9289Z" fill="#3E2B63" stroke="#3E2B63"/>
<path d="M46.2853 68.0718L46.4348 68.2476H47.7785C47.677 68.8038 47.5739 69.3616 47.4709 69.9263C47.2243 69.7127 47.0185 69.5313 46.8449 69.3706C46.534 69.0829 46.3489 68.8825 46.2287 68.7095C46.0406 68.4388 45.9861 68.2087 45.9162 67.6392C46.0113 67.7508 46.1268 67.8856 46.2853 68.0718Z" fill="#3E2B63" stroke="#3E2B63"/>
<path d="M16.9674 47.2559C16.772 47.4598 16.5849 47.6537 16.2457 48.0078C15.5278 47.8954 14.8085 47.7819 14.0748 47.667V47.2559H16.9674Z" fill="#3E2B63" stroke="#3E2B63"/>
<path d="M27.9084 35.9833H26.5051C26.5036 35.9155 26.5012 35.8529 26.5012 35.7948C26.5012 35.4796 26.5225 35.3017 26.5724 35.0282C27.2963 34.6508 27.6469 34.4712 27.8781 34.3807C27.8885 34.3767 27.8987 34.3736 27.9084 34.37V35.9833Z" fill="#3E2B63" stroke="#3E2B63"/>
<path d="M32.64 60.6548C32.8397 61.1337 32.9007 61.3194 32.9008 61.4947C32.9008 61.6699 32.8405 61.856 32.641 62.3345H31.558L31.5472 62.3502C31.4577 61.7893 31.3688 61.2254 31.2777 60.6548H32.64Z" fill="#3E2B63" stroke="#3E2B63"/>
<path d="M71.9181 80.5222L72.0236 80.6873L72.213 80.7371C72.656 80.8527 73.0996 80.9679 73.5509 81.0857V81.5398H71.6866C71.6785 81.0821 71.6796 80.624 71.6896 80.1658C71.7649 80.2837 71.8413 80.4021 71.9181 80.5222Z" fill="#3E2B63" stroke="#3E2B63"/>
<path d="M32.4725 72.1605H30.8729L30.7772 72.5365C30.6652 72.975 30.5525 73.4137 30.4393 73.8568C30.3324 73.2707 30.2252 72.6814 30.1161 72.0834C30.4362 71.9633 30.6322 71.9072 30.8983 71.8724C31.2247 71.8299 31.6518 71.8239 32.4725 71.8226V72.1605Z" fill="#3E2B63" stroke="#3E2B63"/>
<path d="M2.90002 4.37921C3.02583 4.97012 3.15164 5.56289 3.27991 6.16534C2.82093 6.25517 2.36007 6.34527 1.89221 6.43683C1.81715 6.26155 1.77036 6.14577 1.73108 6.02277C1.67975 5.86197 1.63877 5.68651 1.56506 5.35284C1.83925 5.03088 2.11483 4.70837 2.39514 4.37921H2.90002Z" fill="#3E2B63" stroke="#3E2B63"/>
<path d="M15.1288 46.5961C14.1576 46.693 13.7081 46.6988 12.7626 46.6996C12.7229 46.6064 12.6833 46.5129 12.6434 46.4193C13.4692 46.4781 14.2964 46.5368 15.1288 46.5961Z" fill="#3E2B63" stroke="#3E2B63"/>
<path d="M73.4518 82.5402C73.3664 83.008 73.2803 83.4771 73.194 83.9503C73 83.6449 72.8563 83.3579 72.7428 83.0665C72.6765 82.8963 72.6202 82.7225 72.569 82.5402H73.4518Z" fill="#3E2B63" stroke="#3E2B63"/>
<path d="M8.5108 78.2659C8.36161 78.2269 8.21197 78.1879 8.06158 78.1487C8.22664 77.8675 8.3644 77.6426 8.4903 77.4583C8.49709 77.4483 8.50414 77.4386 8.5108 77.429V78.2659ZM9.82037 77.0735H8.79791C8.85802 77.0132 8.91211 76.967 8.96588 76.9319C9.09136 76.85 9.24744 76.7958 9.52155 76.7659C9.64932 76.752 9.79357 76.7439 9.96198 76.7395C9.91482 76.8503 9.86799 76.9617 9.82037 77.0735Z" fill="#3E2B63" stroke="#3E2B63"/>
<path d="M54.0339 6.85223C53.9993 6.96051 53.9641 7.06874 53.9294 7.17743L53.7858 6.95184H52.485C52.5514 6.74393 52.6181 6.5352 52.6852 6.32489C53.1314 6.49952 53.5795 6.67438 54.0339 6.85223Z" fill="#3E2B63" stroke="#3E2B63"/>
<path d="M49.0186 59.7616V60.995H48.3077C48.3086 60.7881 48.3105 60.6171 48.3155 60.4725C48.3242 60.2214 48.3408 60.0846 48.3624 59.9999C48.3822 59.9224 48.3884 59.8969 48.5538 59.7616H49.0186Z" fill="#3E2B63" stroke="#3E2B63"/>
</svg>
